<svg data-v-0dd9719b="" version="1.0" xmlns="http://www.w3.org/2000/svg" xmlns:xlink="http://www.w3.org/1999/xlink" width="100%" height="100%" viewBox="0 0 340.000000 250.000000" preserveAspectRatio="xMidYMid meet" color-interpolation-filters="sRGB" style="margin: auto;"> <rect data-v-0dd9719b="" x="0" y="0" width="100%" height="100%" fill="#feffff" fill-opacity="1" class="background"></rect> <rect data-v-0dd9719b="" x="0" y="0" width="100%" height="100%" fill="url(#watermark)" fill-opacity="1" class="watermarklayer"></rect> <g data-v-0dd9719b="" fill="#34823b" class="iconlinesvg-g iconlinesvg" transform="translate(81.8648452758789,106.09997367858887)"><g class="tp-name"><g transform="translate(0, 0)"><g><g class="imagesvg"><g><rect fill="#34823b" fill-opacity="0" stroke-width="2" x="0" y="0" width="33.38462954038622" height="37.800053828039516" class="image-rect"></rect> <svg x="0" y="0" width="33.38462954038622" height="37.800053828039516" filtersec="colorsb633042651" class="image-svg-svg primary" style="overflow: visible;"><svg xmlns="http://www.w3.org/2000/svg" viewBox="-0.05835669860243797 -0.000006781433057767572 151.1483612060547 171.13999938964844"><defs><linearGradient id="a79957d7f-1029-40b5-af7f-2a06adf0c527" y1="85.57" x2="151.09" y2="85.57" gradientUnits="userSpaceOnUse"><stop offset="0" stop-color="#34823b"></stop><stop offset="1" stop-color="#d5d839"></stop></linearGradient></defs><g><path d="M130.44 32.16l-4.6 4.6A63.27 63.27 0 0 0 22.41 81.17h-6.52a69.73 69.73 0 0 1 114.55-49zM85.57 39a46.56 46.56 0 0 1 37.78 19.35l4.65-4.66a53.1 53.1 0 1 0 0 63.76l-4.65-4.65A46.58 46.58 0 1 1 85.57 39zm50.1-2l-4.59 4.59q2.26 2.35 4.2 4.79l4.62-4.63a85.096 85.096 0 0 0-4.23-4.75zM15.89 90a69.73 69.73 0 0 0 114.55 49l-4.6-4.6A63.27 63.27 0 0 1 22.41 90zm115.19 39.55l4.59 4.59c1.52-1.56 2.94-3.15 4.23-4.75l-4.62-4.62c-1.28 1.59-2.69 3.23-4.2 4.75zm-45.51 35.1a79.05 79.05 0 1 1 60.88-129.42l4.64-4.63a85.57 85.57 0 1 0 0 109.94l-4.64-4.63a78.65 78.65 0 0 1-60.88 28.71z" fill="url(#a79957d7f-1029-40b5-af7f-2a06adf0c527)"></path></g></svg></svg> <!----></g></g></g></g><g transform="translate(37, 3.1438399296017945)"><g data-gra="path-name" fill="#34823b" transform="scale(1)"><path d="M23.10 0L20.13-8.74L7.92-8.74L4.78 0L0.66 0L12.04-30.19L16.66-30.19L27.55 0L23.10 0ZM14.02-25.74L9.24-12.37L18.64-12.37L14.19-25.74L14.02-25.74Z" transform="translate(-0.6599450045829514, 31.017415215398714)"></path></g></g><g transform="translate(67, 3.1438399296017945)"><g data-gra="path-name" fill="#34823b" transform="scale(1)"><path d="M32.17-30.19L32.17 0L28.21 0L28.21-17.82Q28.21-20.29 28.21-25.41L28.21-25.41L19.63 0L15.51 0L7.09-25.41L6.93-25.41Q6.93-23.59 7.09-19.96L7.09-19.96Q7.09-18.15 7.09-17.82L7.09-17.82L7.09 0L2.97 0L2.97-30.19L8.91-30.19L17.65-4.62L26.23-30.19L32.17-30.19Z" transform="translate(-2.9697525206232815, 31.017415215398714)"></path></g></g><g transform="translate(100, 3.1438399296017945)"><g data-gra="path-name" fill="#34823b" transform="scale(1)"><path d="M3.79-30.19L7.92-30.19L7.92 0L3.79 0L3.79-30.19Z" transform="translate(-3.7946837763519707, 31.017415215398714)"></path></g></g><g transform="translate(108, 3.1438399296017945)"><g data-gra="path-name" fill="#34823b" transform="scale(1)"><path d="M3.13-30.19L7.26-30.19L7.26-3.63L22.60-3.63L22.60 0L3.13 0L3.13-30.19Z" transform="translate(-3.1347387717690194, 31.017415215398714)"></path></g></g><g transform="translate(131, 3.1438399296017945)"><g data-gra="path-name" fill="#34823b" transform="scale(1)"><path d="M3.13-30.19L7.26-30.19L7.26-3.63L22.60-3.63L22.60 0L3.13 0L3.13-30.19Z" transform="translate(-3.1347387717690194, 31.017415215398714)"></path></g></g><g transform="translate(154, 3.1438399296017945)"><g data-gra="path-name" fill="#34823b" transform="scale(1)"><path d="M7.75-3.63L25.90-3.63L25.90 0L3.63 0L3.63-30.19L25.57-30.19L25.57-26.73L7.75-26.73L7.75-17.32L24.25-17.32L24.25-13.69L7.75-13.69L7.75-3.63Z" transform="translate(-3.6296975252062325, 31.017415215398714)"></path></g></g></g> <!----></g><defs v-gra="od"></defs></svg>